# xmcd
#
# Track frame offsets:
#	150
#	13167
#	27459
#	50099
#	61964
#	70681
#	82459
#	99288
#	120518
#	132308
#	148513
#	160548
#	170161
#	183648
#	201990
#	211101
#	221931
#	238672
#	254235
#
# Disc length: 3542 seconds
#
# Revision: 1
# Processed by: cddbd v1.5.1PL0 Copyright (c) Steve Scherf et al.
# Submitted via: audiograbber 1.83.01
#
DISCID=2a0dd413
DTITLE=Various Artist - Rhythm and Blues
DYEAR=2004
DGENRE=Misc
TTITLE0=John Lee Hooker - I Want To Hug You
TTITLE1=Billy Boy Arnold - I Wish you Would
TTITLE2=Lightinin Hopkins - I'll Be Gone
TTITLE3=Sly and The Family Stone - I Ain't Got Nobody
TTITLE4=Magig Sam - Please Be Cool
TTITLE5=Jimmy Reed - Honest I Do
TTITLE6=Ike and Tina Turner - I Smell Trouble
TTITLE7=Lightinin Hopkins - 8 Shake It Baby
TTITLE8=Magig Sam - Shakin' And Shoutin
TTITLE9=Rod Stewart - I Just Got Some
TTITLE10=The Kingsmen - Louie Louie
TTITLE11=John Lee Hooker - Onions
TTITLE12=Sly and The Family Stone - Watermelon Man
TTITLE13=Mike Bloomfield - Don't You Lie To Me
TTITLE14=Magig Sam - Just Pickin'
TTITLE15=John Lee Hooker - Send Me Your Pillow
TTITLE16=Billy Boy Arnold - Catfish
TTITLE17=Sceamin' Jay Hawkins - I'll Put A Spell On You
TTITLE18=Magig Sam - Bullet Blues
EXTD=
EXTT0=
EXTT1=
EXTT2=
EXTT3=
EXTT4=
EXTT5=
EXTT6=
EXTT7=
EXTT8=
EXTT9=
EXTT10=
EXTT11=
EXTT12=
EXTT13=
EXTT14=
EXTT15=
EXTT16=
EXTT17=
EXTT18=
PLAYORDER=
